<svg version="1.1" xmlns="http://www.w3.org/2000/svg" width="340.79999999999995"
    height="151.31519999999998" viewBox="0 0 250.00000000000003 111" class="css-1j8o68f">
    <defs id="SvgjsDefs1512"></defs>
    <g id="SvgjsG1513" featurekey="rootContainer" transform="matrix(1,0,0,1,0,0)" fill="#122d42">
        <rect y="0" height="1" width="1" opacity="0"></rect>
        <rect y="106" width="250" height="5"></rect>
    </g>
    <g id="SvgjsG1514" featurekey="nameFeature-0"
        transform="matrix(2.0091439102055904,0,0,2.0091439102055904,-2.038133793836745,-4.823876046219631)"
        fill="#122d42">
        <path
            d="M30.88 38.64 c0.56 0.08 0.4 1.36 -0.08 1.36 l-10.56 0 c-0.52 0 -0.56 -1.28 -0.12 -1.36 c1.48 -0.28 3.08 -0.8 1.6 -4.24 l-0.44 -1 c-0.4 -0.96 -1.08 -1.04 -2.28 -1.04 l-8.16 0 c-1.2 0 -1.88 0.08 -2.28 1.04 l-0.4 1 c-1.4 3.44 0.12 3.96 2.04 4.24 c0.52 0.08 0.4 1.36 -0.12 1.36 l-8.64 0 c-0.48 0 -0.6 -1.28 -0.12 -1.36 c1.64 -0.28 2.6 -0.84 4.08 -4.24 l6.76 -15.52 c1.56 -3.52 2.04 -5.16 2.04 -6.68 c0 -0.24 2.8 -0.88 2.92 -0.6 l9.76 22.76 c1.44 3.4 2.4 4.04 4 4.28 z M18.72 30.119999999999997 c0.56 0 1.16 -0.08 0.92 -0.64 l-4.68 -11.2 l-4.72 11.2 c-0.24 0.56 0.36 0.64 0.92 0.64 l7.56 0 z M31.930000000000003 40 c-0.32 0 -0.6 -1.16 -0.28 -1.2 c1.2 -0.16 2.76 -0.76 2.76 -3.52 l0 -9.12 c0 -1.92 -1.04 -2.36 -2.72 -2.56 c-0.32 -0.04 -0.16 -1.08 0.16 -1.16 l6.32 -1.76 c0.48 -0.12 0.68 0.2 0.68 0.56 c0 1.16 0.08 2.56 0.96 2 c1.48 -0.96 3.68 -2.56 5 -2.56 c0.56 0 2 1.16 1.88 1.8 c-0.36 1.92 -0.8 3.32 -1.4 3.32 c-0.2 0 -1.16 -1.04 -3.28 -1.04 c-1.6 0 -3.32 0.48 -3.32 2.56 l0 7.96 c0 2.76 1.12 2.96 4.76 3.52 c0.28 0.04 0.16 1.2 -0.64 1.2 l-10.88 0 z M66.53999999999999 21.08 c2.32 0 2.52 4.08 -1.64 4.08 l-0.68 0 c0.2 0.68 0.32 1.44 0.32 2.2 c0 3.28 -2.16 6.84 -7.92 6.84 c-2.4 0 -4.2 1.28 -4.2 2.36 c0 0.64 0.6 1.16 1.96 1.16 l7.96 0 c2.72 0 4.64 0.8 4.64 3.36 c0 4.28 -5.4 8.08 -11.68 8.08 c-5.48 0 -6.64 -3 -6.64 -4.88 c0 -0.64 1.84 -2.08 3.24 -3.32 c-1.56 -0.84 -3.36 -2.84 -3.36 -3.6 s0.32 -1.12 1.16 -1.68 l3.24 -2.12 c-2.8 -1.12 -4.08 -3.52 -4.08 -6.04 c0 -3.28 2.16 -6.84 7.92 -6.84 c2.2 0 3.88 0.52 5.12 1.36 c3 1.72 2.24 -0.96 4.64 -0.96 z M57.46 32.2 c2.12 0 3.08 -1.6 3.08 -3.8 c0 -2.96 -1.84 -5.72 -4.52 -5.72 c-2.08 0 -3.12 1.6 -3.12 3.88 c0 2.92 1.8 5.64 4.56 5.64 z M60.46 41.36 l-7.36 0 l-0.12 0 c-0.2 0.92 -0.48 1.88 -0.48 2.56 c0 1.56 1.56 3.12 4.84 3.12 c6.36 0 7.04 -5.68 3.12 -5.68 z M85.63 40.64 c-6.72 0 -15.8 -3.92 -15.8 -14.12 c0 -6.92 4.24 -15.16 15.44 -15.16 c4.64 0 8.64 1.44 8.16 2.84 l-0.52 1.56 c-1.44 4.28 -3 -1.2 -10.12 -1.2 c-5.72 0 -8.52 3.72 -8.52 9.48 c0 9 6.84 12.76 12.32 12.76 c0.72 0 4.36 -0.56 6.44 -1.88 c0.32 -0.2 1.16 0.72 0.92 1.08 c-1.72 2.52 -7.08 4.64 -8.32 4.64 z M125.03999999999999 12 c0.44 0 0.6 1.28 0.08 1.36 c-1.6 0.24 -2.64 0.88 -4.08 4.24 l-6.76 15.72 c-1.4 3.24 -2.04 5.08 -2.04 6.68 c0 0.24 -2.76 0.88 -2.88 0.6 l-9.72 -22.96 c-1.44 -3.44 -2.52 -4.04 -4.08 -4.28 c-0.52 -0.08 -0.4 -1.36 0.12 -1.36 l10.52 0 c0.52 0 0.6 1.28 0.12 1.36 c-1.48 0.24 -2.96 0.88 -1.56 4.24 l6.76 16.24 l6.76 -16.24 c1.44 -3.44 -0.16 -3.96 -2 -4.24 c-0.52 -0.08 -0.4 -1.36 0.12 -1.36 l8.64 0 z"></path>
    </g>
</svg>